<svg width="78" height="69" viewBox="0 0 78 69" fill="none" xmlns="http://www.w3.org/2000/svg">
<path d="M68 49V49C69.7145 53.6328 73.3672 57.2855 78 59V59V59C73.3672 60.7145 69.7145 64.3672 68 69V69V69C66.2855 64.3672 62.6328 60.7145 58 59V59V59C62.6328 57.2855 66.2855 53.6328 68 49V49Z" fill="white"/>
<path d="M19.5 0L21.4162 5.17777C23.5432 10.9252 28.0748 15.4568 33.8222 17.5838L39 19.5L33.8222 21.4162C28.0748 23.5432 23.5432 28.0748 21.4162 33.8222L19.5 39L17.5838 33.8222C15.4568 28.0748 10.9252 23.5432 5.17777 21.4162L0 19.5L5.17777 17.5838C10.9252 15.4568 15.4568 10.9252 17.5838 5.17777L19.5 0Z" fill="white"/>
</svg>
