<svg xmlns="http://www.w3.org/2000/svg" viewBox="0 0 17.92 17.23"><defs><style>.cls-1{fill:#bf6173;}</style></defs><g id="Layer_2" data-name="Layer 2"><g id="Layer_2-2" data-name="Layer 2"><path class="cls-1" d="M3.05,15.69l.61-3.88a1.32,1.32,0,0,0-.4-1.17L.42,7.93a1.33,1.33,0,0,1,.7-2.28L5,5A1.31,1.31,0,0,0,6,4.3L7.69.76a1.32,1.32,0,0,1,2.38,0l1.78,3.5a1.34,1.34,0,0,0,1,.71l3.89.51a1.33,1.33,0,0,1,.76,2.26l-2.77,2.78a1.33,1.33,0,0,0-.37,1.18l.71,3.86A1.33,1.33,0,0,1,13.18,17l-3.5-1.78a1.34,1.34,0,0,0-1.23,0L5,17.07A1.33,1.33,0,0,1,3.05,15.69Z"/></g></g></svg>