<svg xmlns="http://www.w3.org/2000/svg" viewBox="0 0 1922.02 1081.52"><defs><style>.cls-3{fill:#e6d9e2}.cls-5{fill:#89a4a3}.cls-6{fill:#bf6173}.cls-10{fill:#442c32}.cls-11{fill:#506860}</style></defs><g id="Layer_2" data-name="Layer 2"><g id="Layer_4" data-name="Layer 4"><path style="fill:#eff9f8" d="M.87.81h1920v1080H.87z"/><path class="cls-3" d="M493.59 0q34.19 33.49 31.92 76.69-2.51 47.85 38.39 82.55t93.81 88.06q52.92 53.38 104.7 7.84t114.38-39.32Q939.39 222 961 177.5c14.42-29.7 116.36-115.25 170.43-134.79 22.33-8.07 41-24.39 58.26-42.71Z" id="blob" style="opacity:.46"/><path class="cls-5" d="M791.7 582.94q-17.24-102.47-84-204.61t-298.6-87.8q-231.78 14.33-319-8.66A883.73 883.73 0 0 0 0 263v635.3c2.06.21 4.13.41 6.19.6q122.48 11.33 185.41-50.07t173.62-75q110.68-13.53 277.21-51T791.7 582.94Z" id="blob-2" data-name="blob" style="opacity:.73"/><path class="cls-6" d="M1922 455.49V328.23q-46.76-8.24-83 28.8-38.21 39.11-87.78 44.76t-127.35 25.6q-77.78 19.94-89.57 88.93a462 462 0 0 0-2.45 139.29q9.33 70.29 110.53 67.81t134 15.55a211 211 0 0 0 69 23.8q29.79 4.76 76.65 41.43V455.49Z" id="blob-3" data-name="blob"/><path class="cls-3" d="M1922 516.47c-118.42 43.44-277.7 141.21-347.94 197.47q-153 122.52-316.25 77.35t-221.56 64.56Q978 965.58 826.63 1030.93q-55.9 24.13-75 50.59H1922Z" id="blob-4" data-name="blob" style="opacity:.9"/><path class="cls-6" d="M440.28 1081.26Q418 1020.78 407 965q-15.45-78.67-58.31-151.35t-149.76-24Q92 838.33 42.59 814.44A433.49 433.49 0 0 1 0 790.21v291Z" id="blob-5" data-name="blob" style="opacity:.53"/><path class="cls-5" d="M1922 455.49V0h-671.42q1.79 53.66 2.85 105.89 1.57 77.85 36.57 152.53t144.59 46.08q109.62-28.61 144.58 58.79t138.24 251q94.35 149.52 204.63 121.3v-280.1Z" id="blob-6" data-name="blob" style="opacity:.47"/><path class="cls-10" d="M598.58 0h-2.35c-5.23 2.44-10.39 4.85-15.56 7.24C537.92 27 494 47.37 461.32 79.9c-38.49-1.42-69.35 9.78-92 33.44-14.72 15.41-24.6 36-27.83 58.06-3.28 22.37.59 44.7 10.9 62.88 5.11 9 13.47 18.55 22.32 28.66 11.32 12.93 23 26.3 27.82 38.83 13.19 34.5 10.72 73.13-6.47 100.83-18.84 30.38-42.54 51.73-102.38 64.3-30.61 6.42-90.42 4.28-155-15-40.36-12-92.83-34-138.7-73.18V380c45.84 39 98.15 60.8 138.42 72.82 43.83 13.08 85.48 18.29 117.35 18.29 15.22 0 28.22-1.19 38.16-3.28 60.18-12.64 84-34.14 103-64.74 17.61-28.38 20.06-66.41 6.55-101.72-4.85-12.69-16.62-26.13-28-39.13-8.82-10.06-17.14-19.57-22.2-28.49-20.73-36.55-13.51-88 16.79-119.76 22.21-23.25 52.48-34.37 90.26-33.16a175.48 175.48 0 0 0-20.41 24.66c-16.68 24.6-24.3 51.41-21.41 75.51 1.35 11.29 7.12 20.19 17.12 26.46 23.43 14.68 64.54 11.11 84.94 4.08 16.67-5.75 38.92-22.29 48.4-45 5.56-13.34 5.48-26.65-.23-38.49-16.43-34.11-49.81-40-76.62-44.64l-2.19-.41a211.31 211.31 0 0 0-27.34-3c31.94-31.72 74.25-51.3 118.52-71.8q8.71-4.08 17.49-8.2ZM489.73 84l2.19.39c26.6 4.65 59.69 10.44 75.9 44.08 5.58 11.58 5.65 24.61.21 37.68-9.36 22.46-31.34 38.8-47.81 44.48-20.22 7-60.92 10.53-84.07-4-9.75-6.11-15.35-14.76-16.66-25.74-2.87-23.89 4.69-50.47 21.28-74.83a177.45 177.45 0 0 1 20.83-25.15A209.82 209.82 0 0 1 489.73 84Z"/><path class="cls-11" d="M1505.42 856.91c3.45 41.44 3.28 75.63-.53 107.59-4.87 40.91-16.31 80.65-28.79 117h2.11c12.44-36.3 23.8-75.94 28.67-116.78 3.82-32.1 4-66.42.53-108-3-36.54-7.94-65.64-15.42-91.55-12.23-42.43-37-86.55-69.75-124.22l-1.51 1.32c32.56 37.45 57.18 81.29 69.34 123.45 7.44 25.81 12.32 54.78 15.35 91.19Z"/><path class="cls-11" d="M1410.29 645a23.82 23.82 0 0 1-4-.31c-3.75-.66-7-2.64-10.21-4.55a41.18 41.18 0 0 0-6.83-3.57 81.53 81.53 0 0 0-12.44-3.15c-6.17-1.23-12.55-2.5-18.1-5.78-11.11-6.56-16.29-19.14-21-32.55-2.34-6.62-9.42-24-12.24-30.8a18.65 18.65 0 0 1-1.49-4.51l-.37-1.86 1.74.74 7.47 3.18c16.51 7 33.58 14.31 51.24 19.62 13.84 4.16 31.06 9.34 37 23.67 2.85 6.82 2.43 14.29 2 21.51-.28 5-.57 10.2.24 15.1l.1.61-.5.36c-1 .7-6.96 2.29-12.61 2.29Zm-80.41-75.07c3.32 8.12 7.86 19.42 9.66 24.49 4.62 13 9.64 25.28 20.17 31.5 5.25 3.1 11.19 4.28 17.47 5.53a85 85 0 0 1 12.74 3.24 43.61 43.61 0 0 1 7.18 3.73c3.15 1.91 6.13 3.71 9.51 4.29 4.37.77 9.91-.13 13-.9-7.29-4.33-20.52-19.88-20.67-20-3.62-4.39-9-6.51-14.6-8.74a72.71 72.71 0 0 1-8.87-4c-7.25-4.09-12.48-10.39-17.54-16.49-3.74-4.51-7.61-9.17-12.23-12.83a51.51 51.51 0 0 0-7.91-4.87 45.69 45.69 0 0 1-7.91-4.99Zm-2.68-6.54c2.32 4.78 6.63 7.09 11.48 9.68a52.87 52.87 0 0 1 8.21 5.06c4.79 3.79 8.72 8.53 12.53 13.12 4.94 6 10.06 12.12 17 16a70.69 70.69 0 0 0 8.63 3.88c5.63 2.23 11.46 4.54 15.41 9.32 4.17 5.07 15.53 17.3 20.67 19.94a79.55 79.55 0 0 1 0-13.89c.41-7.32.79-14.23-1.88-20.63-5.61-13.46-22.33-18.49-35.76-22.53-17.77-5.34-34.89-12.64-51.45-19.69l-5.61-2.39c.14.45.3.89.47 1.3ZM1490.1 760.72l-1.41-1.41a55 55 0 0 1 8.69-6.45c4-2.59 8.1-5.27 10.4-8.3 5.58-7.36 11.35-15 15.16-23.51 5.5-12.34 7.17-27.06 5-43.77-1.9-14.43-7.62-32.58-11.51-44.6l-16.26 41.23a175.89 175.89 0 0 0-6.05 17c-4.46 15.93-5.65 48.71-3.7 66.27l-2 .23c-2-17.75-.75-50.9 3.76-67a180.6 180.6 0 0 1 6.11-17.21l18.31-46.4.86 2.65c5.25 16.13 10.54 33.1 12.46 47.6 2.25 17.08.53 32.17-5.12 44.84-3.9 8.76-9.75 16.46-15.4 23.91-2.51 3.31-6.77 6.08-10.9 8.77a54.13 54.13 0 0 0-8.4 6.15Z"/><path class="cls-11" d="m1490.62 758.78-1.95-.44c1.53-6.83 13.19-33 15.86-38.43 8.55-17.47 14.26-69.34 11.39-88.71l2-.3c2.91 19.62-2.9 72.16-11.58 89.89-3.22 6.54-14.29 31.6-15.72 37.99ZM1505.63 848.07l-.17-2c7.88-.64 34.26-10.53 39.91-15.57 4.08-3.64 7.32-8.21 10.46-12.64l2.87-4c18-25.23 38.24-53.75 41.67-83.65a83 83 0 0 1-14.8 5.24c-3.48 1-7.08 2-10.47 3.34-20.56 8-37 29.21-42.82 55.29-2.77 12.34-17.73 38.92-26.17 48.32l-1.49-1.33c8.3-9.24 23-35.33 25.71-47.43 6-26.72 22.87-48.46 44-56.71 3.48-1.36 7.12-2.4 10.65-3.4 5.45-1.55 11.09-3.16 16-6l1.66-.94-.17 1.9c-2.84 31.12-23.77 60.54-42.23 86.49l-2.87 4c-3.2 4.52-6.51 9.18-10.76 13-5.9 5.37-32.68 15.41-40.98 16.09Z"/><path class="cls-11" d="m1506.11 845.18-.23-2c2.82-.31 17-14.93 33.68-34.77 6.08-7.21 11.1-15.78 16.41-24.86s10.88-18.56 17.64-26.64c.35-.41.87-1 1.52-1.83 9.78-11.85 21.59-25.7 26.2-27.61l.77 1.85c-4.74 2-20.31 20.83-25.43 27l-1.52 1.84c-6.66 7.94-12.15 17.31-17.45 26.36s-10.42 17.8-16.61 25.14c-6.88 8.22-29.74 34.93-34.98 35.52ZM1505.6 958.35c-.38-3.64-11.33-8.8-16-11-.72-.33-1.34-.63-1.84-.87a23.88 23.88 0 0 1-6.2-4.79c-17.19-17.22-25.22-41.42-32.31-62.76-3.59-10.83-7.28-25-3.92-38.64l.38-1.51 15.78 12.43a74.33 74.33 0 0 1 18.31 19c6 8.18 12.89 17.45 16 28 1.7 5.69 10.3 23 13.65 28.74l-1.73 1c-3.06-5.26-12-22.92-13.84-29.18-3.05-10.2-9.49-18.93-15.73-27.37a72.45 72.45 0 0 0-17.94-18.65l-13.32-10.49c-2.62 12.68.85 25.85 4.22 36 7 21.14 15 45.1 31.83 62a21.76 21.76 0 0 0 5.66 4.4l1.81.87c8 3.79 16.68 8.21 17.14 12.6Z"/><path class="cls-11" d="M1507.17 944.55c-22.29-19.23-53-82.24-60.87-102.95l1.86-.71c7.84 20.57 38.29 83.11 60.31 102.11ZM1490.71 1036.64c-19.32-18.05-42-49.74-46.62-71.52-2.8-13.27-2-28.33 2.39-46l.38-1.51 1.22 1c11.78 9.35 22.14 23.49 26.38 36 1.39 4.08 2.42 8.32 3.42 12.42l.39 1.62c1.47 6 6.13 14.86 10.63 23.44 4 7.63 7.79 14.83 9.44 20.09l-1.91.59c-1.59-5.08-5.33-12.2-9.3-19.75-4.56-8.69-9.27-17.67-10.8-23.89l-.4-1.63c-1-4.06-2-8.25-3.36-12.25-4-11.77-13.53-25-24.52-34.12-4 16.76-4.65 31-2 43.63 4.51 21.39 26.94 52.63 46 70.47Z"/><path class="cls-11" d="M1494 1024.51c-13.3-9.77-29.6-43.6-32-51.3a86.18 86.18 0 0 1-2.22-10c-.43-2.39-.88-4.86-1.47-7.24-.21-.82-.5-2.09-.86-3.67-1.83-7.94-6.68-29-10.34-31.89l1.23-1.57c3.71 2.89 7.51 17.58 11.06 33 .36 1.56.65 2.82.85 3.64.61 2.44 1.06 4.94 1.5 7.36a83.55 83.55 0 0 0 2.16 9.72c2.25 7.31 18.52 40.94 31.25 50.28ZM1439 1081.52h2.67c-6-6.87-11-13.47-12.81-17.59-6.53-14.5-13.92-30.93-13.32-47.92a84.9 84.9 0 0 1 2-13.47c1.24-6.23 2.52-12.62 2-18.57 3 3.5 6.37 6.79 9.61 10a135 135 0 0 1 11.94 12.89c8.35 10.79 13.4 27.64 18.27 43.93 3.21 10.69 6.51 21.63 10.73 30.73h2.2c-4.29-9-7.58-19.87-11-31.31-4.93-16.46-10-33.48-18.61-44.57a137 137 0 0 0-12.11-13.09A148.84 148.84 0 0 1 1418.8 980l-2.73-3.44 1 4.28c1.48 6.5 0 14.05-1.48 21.34a89 89 0 0 0-2 13.8c-.62 17.46 6.88 34.11 13.49 48.81 1.76 4.01 6.34 10.21 11.92 16.73Z"/><path class="cls-11" d="M1459.51 1081.52h2.26c-13.17-26-31.1-71.89-38.91-91.87-1.17-3-2.14-5.49-2.87-7.31l-1.86.73c.73 1.83 1.7 4.31 2.87 7.31 8.42 21.54 25.52 65.26 38.51 91.14ZM1488.37 1081.52c12.66-6.86 29.33-13.23 39.36-14.4a70.06 70.06 0 0 1 9.61-.22 77.08 77.08 0 0 0 9.23-.15 63.25 63.25 0 0 0 15.34-3.94 189.69 189.69 0 0 0 25.76-11.64c-1.87 6.45-11.17 21.15-18.32 30.35h2.45c8.14-10.74 18.17-27.16 18.21-32.23v-1.71l-1.5.83a186.43 186.43 0 0 1-27.3 12.52 61.69 61.69 0 0 1-14.85 3.83 74.76 74.76 0 0 1-9 .14 72.82 72.82 0 0 0-9.89.23c-11 1.3-30 8.77-43.19 16.39Z"/><path class="cls-11" d="M1542.14 1081.52c21-3.15 36.55-13.38 47.37-31l-1.71-1c-12.51 20.44-31.62 30.62-58.42 31.12a33.72 33.72 0 0 0-5.9 1ZM1492.7 1033.08l-.54-1.93c12.6-3.55 29.51-11.48 37.43-19.76 1.19-1.24 2.3-2.63 3.38-4a34.06 34.06 0 0 1 6.64-6.88c4.83-3.42 12.79-6.38 21.22-9.52 16.44-6.12 35.08-13 39.27-25.83l1.9.63c-4.49 13.69-23.61 20.8-40.47 27.08-8.31 3.09-16.15 6-20.77 9.27a32.64 32.64 0 0 0-6.23 6.49c-1.11 1.39-2.25 2.82-3.5 4.12-8.55 8.96-25.86 16.81-38.33 20.33Z"/><path class="cls-11" d="M1490.77 1049.92c-1.11 0-2.17 0-3.18-.11l.16-2c14.19 1.12 40.43-6.44 50.13-14.43a116.71 116.71 0 0 0 9.11-8.67c3.87-4 7.88-8.07 12.55-11.31 5.94-4.12 12.79-6.73 19.41-9.25 5.68-2.17 11.56-4.41 16.78-7.59a15.68 15.68 0 0 0 5.13-4.47c2.1-3.24 1.09-8.51.12-13.61-.73-3.82-1.48-7.73-1-11.07-7.09 4.53-17.22 9.32-26.72 10.57-1.46.19-2.94.28-4.37.36a43 43 0 0 0-5.89.63c-4.58.94-8.8 3.45-12.53 5.66-6.42 3.82-14.11 7.93-22.25 12.28-10.84 5.79-22 11.77-30.49 17.25l-1.09-1.67c8.52-5.53 19.76-11.54 30.64-17.34 8.12-4.34 15.79-8.44 22.17-12.24 3.86-2.29 8.24-4.89 13.15-5.9a43.54 43.54 0 0 1 6.17-.66c1.4-.08 2.84-.17 4.23-.35 10.19-1.34 21.17-6.93 28-11.71l2.86-2-1.37 3.19c-1.38 3.24-.47 8 .41 12.6 1 5.49 2.14 11.17-.41 15.08a17.38 17.38 0 0 1-5.76 5.09c-5.37 3.27-11.34 5.55-17.11 7.75-6.51 2.48-13.24 5-19 9-4.51 3.12-8.45 7.16-12.26 11.06a119.13 119.13 0 0 1-9.26 8.82c-9.45 7.87-33.1 15.04-48.33 15.04ZM1509.86 967.54a29.14 29.14 0 0 1-3.87-.25l.27-2c15.4 2.11 35.27-10.52 40.23-15.67 4-4.12 6.85-9.29 9.63-14.29l1.56-2.78c3.08-5.42 6.61-11.17 10.34-17.26 13.21-21.53 28.15-45.88 30.59-67.8-8.84 1.16-16.35 2.31-20.46 6.52-3.05 3.12-6.13 12.89-8.16 19.35-.9 2.85-1.67 5.32-2.26 6.69-3.34 7.73-9.34 12.92-15.14 17.94a78.18 78.18 0 0 0-11.3 11.21c-3.25 4.22-5 9.5-6.67 14.6-.6 1.83-1.22 3.72-1.91 5.54-2.79 7.44-17.53 15.57-24.63 17.52l-.53-1.93c7.53-2.07 20.92-10 23.29-16.29.67-1.79 1.28-3.66 1.88-5.47 1.73-5.26 3.53-10.7 7-15.2a81 81 0 0 1 11.57-11.5c5.89-5.09 11.46-9.9 14.61-17.21.55-1.28 1.31-3.7 2.19-6.5 2.22-7 5.25-16.68 8.64-20.15 4.78-4.9 13.14-6 22.81-7.26l1.24-.16v1.23c-2 22.71-17.43 47.79-31 69.91-3.73 6.08-7.25 11.81-10.31 17.21l-1.55 2.76c-2.85 5.11-5.79 10.4-9.94 14.71-4.98 5.12-22.61 16.53-38.12 16.53Z"/><path class="cls-11" d="m1506.81 959.22-.43-2c28.39-6.18 49.69-43.81 66.81-74 9.42-16.63 17.55-31 25-36.94l1.25 1.57c-7.21 5.71-15.25 19.91-24.56 36.35-17.26 30.59-38.81 68.65-68.07 75.02ZM1505.8 861.21c-13.77-2.68-46.18-16-55.67-28.79-4.61-6.23-8-13.31-11.3-20.15a156.94 156.94 0 0 0-8.09-15.4 159.86 159.86 0 0 0-9.78-13.49c-4.66-6-8-13.34-11.25-20.47s-6.49-14.29-11-20.07l-1.14-1.46 1.84-.15c7-.56 14.67 1.83 22.82 7.12 3.17 2.06 6.21 4.38 9.15 6.63 3.23 2.46 6.57 5 10.06 7.19 2.91 1.82 6 3.44 9 5s5.9 3.07 8.76 4.83c12.59 7.75 39.54 41.67 45 54.89l-1.84.77c-5.41-13-31.89-46.35-44.25-54-2.79-1.71-5.76-3.26-8.64-4.76-3-1.59-6.19-3.22-9.16-5.08-3.56-2.23-7-4.81-10.22-7.31-2.91-2.22-5.92-4.51-9-6.53-7-4.57-13.65-6.88-19.7-6.88 4.07 5.67 7.13 12.4 10.1 18.93 3.19 7 6.49 14.29 11 20.07a158.94 158.94 0 0 1 9.91 13.67 161 161 0 0 1 8.2 15.58c3.24 6.76 6.6 13.75 11.1 19.83 8.86 12 40.62 25.33 54.45 28Z"/><path class="cls-11" d="M1504.19 844c-8.27-.87-38.66-25.67-43.44-31.69a114.75 114.75 0 0 1-7.66-11.45c-1.72-2.82-3.51-5.74-5.44-8.47-5.38-7.59-41.29-44.43-48.71-49.35l1.11-1.67c7.79 5.17 43.62 41.94 49.23 49.87 2 2.78 3.78 5.73 5.52 8.58a111.82 111.82 0 0 0 7.52 11.25c5.23 6.58 34.82 30.18 42.08 30.94ZM1487.61 756.44l-1.35-2.3c-12.32-2.7-46.54-13-53.58-23.79-7.68-11.79-15.68-25.59-13.29-40.15l.19-1.16 1.12.38c1.63.55 3.26 1 4.83 1.45 5.45 1.52 11.09 3.1 18.82 9.12 9 7 44.3 44.88 43.54 53.36ZM1421 694.18c-.53 12.54 6.55 24.61 13.36 35.08 5.86 9 34.46 18.7 50.11 22.42-3.76-4.25-12-10.57-21.24-17.71-16.02-12.34-35.74-27.52-42.23-39.79Zm1.14-2.21c5.46 12 25.86 27.74 42.31 40.41 8.11 6.25 15.42 11.87 19.78 16.18-6.79-12.13-32.26-40.1-41.1-47-7.42-5.79-12.87-7.31-18.13-8.78-.95-.25-1.9-.52-2.87-.78Z"/><path class="cls-10" d="M1742.93 0q-9.21 6.4-18.73 12.42c-33.24 20.92-70.85 39-118.34 56.86-41.71 15.71-76.21 25.49-108.54 30.78-52.55 8.6-113.46 4.41-171.51-11.81l-.27 1a434.36 434.36 0 0 0 115.78 16.22 348.75 348.75 0 0 0 56.16-4.38c32.4-5.31 67-15.1 108.74-30.83 47.55-17.9 85.21-36 118.51-57q10.17-6.39 20-13.26Z"/><path class="cls-10" d="M1282.72 106.6c-17.87 0-32-15.6-43.38-28.21-15.11-16.7-32-31.72-48.44-46.24q-3.7-3.27-7.4-6.56l-.71-.63.92-.23a23.25 23.25 0 0 1 5.46-.69c8.91-.46 31.92-1.73 40.5-2.62 17.11-1.77 33.53-2.64 46.36 6 6.41 4.33 11.1 10.64 15.64 16.74a102.39 102.39 0 0 0 10 12.14 51.61 51.61 0 0 0 7.61 5.74c3.72 2.46 7.55 5 10.16 8.69 4.49 6.36 7.2 16.67 6.89 18.34l-.06.3-.29.08c-5.92 1.69-11.63 4.85-17.15 7.89-7.8 4.31-15.87 8.77-24.68 9.19-.45.06-.95.07-1.43.07Zm-97.83-81.11 6.67 5.92c16.44 14.53 33.38 29.59 48.52 46.31 11.57 12.79 25.94 28.72 44.06 27.85 8.58-.41 16.55-4.81 24.25-9.06 5.34-3 10.87-6 16.63-7.76-4.35-4.53-26.12-10.77-34.48-12.87-7.15-1.81-12.67-6.95-18-11.92a83.16 83.16 0 0 0-8.85-7.54c-8-5.66-17.55-8.09-26.76-10.44-7-1.78-14.25-3.63-20.85-6.88a64.15 64.15 0 0 1-9.76-6.33c-5.33-4-10.43-7.72-17.29-7.72l-.89.05a21.21 21.21 0 0 0-3.25.39Zm9.43-.72c4.63 1.31 8.54 4.2 12.59 7.2a63.29 63.29 0 0 0 9.6 6.23c6.51 3.21 13.7 5 20.66 6.81 9.29 2.37 18.9 4.82 27.09 10.59a87.94 87.94 0 0 1 9 7.62c5.48 5.12 10.66 10 17.56 11.68.3.08 27.94 7.08 34.51 12.74-.53-3.18-2.9-11-6.63-16.3-2.5-3.53-6.25-6-9.89-8.42a52.54 52.54 0 0 1-7.76-5.87 103 103 0 0 1-10.14-12.25c-4.49-6-9.14-12.28-15.4-16.52-12.55-8.48-28.78-7.61-45.7-5.86-7.3.75-24.81 1.77-35.49 2.35ZM1359.91 200.18l40.17-43a217 217 0 0 1 15.7-15.67c16.12-14 52.44-33.37 71.77-40l.32.94c-19.24 6.65-55.39 25.91-71.44 39.86a214.86 214.86 0 0 0-15.62 15.6l-38.27 40.91c20-2.6 40.8-5.61 57.24-10.91 19.68-6.34 35.13-15.95 45.93-28.55 7.48-8.73 12.86-19.1 18.06-29.12 2.19-4.23 3-10.22 3.78-16 .64-4.72 1.23-9.18 2.53-12.8l.94.34c-1.26 3.52-1.85 7.92-2.48 12.59-.79 5.89-1.61 12-3.88 16.35-5.23 10.08-10.64 20.5-18.19 29.31-10.92 12.74-26.53 22.45-46.38 28.85-16.9 5.45-38.32 8.48-58.8 11.13Z"/><path class="cls-10" d="m1361.86 199.46-.29-1c23.65-7.21 78.77-40.61 93.28-58.83 5-6.32 27-32.87 33.57-38l.61.79c-6.46 5.06-28.38 31.52-33.4 37.82-14.63 18.38-70 51.97-93.77 59.22ZM1513.78 242.54l.07-.95c.51-7-.68-14.1-1.83-21-.74-4.39-1.49-8.93-1.82-13.43-1.94-27.39 13.07-57.09 39.17-77.52 12-9.35 33.25-39.68 39.24-54l.92.39c-6 14.39-27.49 45-39.54 54.38-25.85 20.22-40.71 49.6-38.79 76.66.32 4.46 1.08 9 1.81 13.34 1.1 6.61 2.24 13.43 1.9 20.24 31.93-19.3 53.07-57.14 71.73-90.56l3-5.28c3.25-5.8 6.61-11.8 8.51-18.27 2.7-9.2-.18-43.23-3.7-52.55l.94-.35c3.55 9.42 6.46 43.86 3.72 53.18-1.93 6.58-5.32 12.63-8.6 18.48l-3 5.28c-18.89 33.81-40.29 72.13-72.91 91.42Z"/><path class="cls-10" d="m1514.82 241.8-.94-.35c.84-2.22 3-8.62 5.45-16 4.07-12.23 9.15-27.46 10.78-31 5.34-11.63 13.28-22.16 21-32.33s14.87-19.72 19.66-30.22c11.2-24.57 22-52.4 20.58-56.43l.94-.33c1.72 5-11.38 36.93-20.61 57.17-4.84 10.6-12.09 20.22-19.77 30.41s-15.54 20.62-20.84 32.15c-1.61 3.51-6.67 18.71-10.74 30.92-2.53 7.36-4.67 13.78-5.51 16.01ZM1645.83 34.77c-12.94 2-26-.55-38.61-3a118 118 0 0 1-16.73-4.11 118.58 118.58 0 0 1-13.36-6L1557.59 12c7.77-6.14 17-9.73 26-12h-3.84c-8.22 2.38-16.44 6-23.44 11.7l-.6.49 20.94 10.39a119.72 119.72 0 0 0 13.46 6 121.56 121.56 0 0 0 16.89 4.16c9.49 1.85 19.23 3.75 29 3.75a65.2 65.2 0 0 0 9.94-.73c7.62-1.17 31.83-.59 39 0l.08-1c-7.36-.6-31.36-1.19-39.19.01ZM1696.48 4.49l-1.92-1.56a22.54 22.54 0 0 0-5-2.93h-2.68a25.25 25.25 0 0 1 7.08 3.71c.53.42 1.17.94 1.91 1.55 6 4.88 17 14 22.14 12.16l-.33-.94c-4.61 1.62-15.82-7.57-21.2-11.99Z"/><path class="cls-10" d="M1702.34 26.31c-32.55-14.37-117.54-15.2-144.34-13.09l-.07-1C1584.8 10.1 1670 11 1702.74 25.4ZM1890.79 0a28.68 28.68 0 0 1 1 9.79c-.62 7.64-21.93 43.81-30.07 49.43a230.46 230.46 0 0 0-.56-35.93c-.57-6.09-1.4-12.57-3.63-18.77-.55-1.54-1.2-3-1.87-4.52h-1.1c.74 1.59 1.44 3.21 2 4.85 2.19 6.11 3 12.51 3.58 18.53a230.85 230.85 0 0 1 .49 36.72l-.06.85.77-.37c7.9-3.82 30.74-42.39 31.42-50.71a29.45 29.45 0 0 0-1-9.87Z"/><path class="cls-10" d="M1872.51 0c4.52 21.19.78 40.69-11.25 59.12l.84.55c12.15-18.62 16-38.3 11.43-59.67ZM1792.24 0a60.06 60.06 0 0 1-3.24 14.76c-.75 2-1.71 4-2.64 5.86-1.66 3.4-3.38 6.92-4 10.71-1.23 7-.33 17.29.61 28.16 1.87 21.46 4 45.79-8.14 57.32l.69.73c12.48-11.86 10.34-36.45 8.45-58.14-.94-10.8-1.83-21-.63-27.9.64-3.65 2.33-7.1 4-10.44.93-1.93 1.91-3.92 2.68-5.95A61.6 61.6 0 0 0 1793.24 0Z"/><path class="cls-10" d="M1818.86 0a52.66 52.66 0 0 1-1.26 12.32 140.6 140.6 0 0 1-4.81 14.68c-2.33 6.31-4.74 12.84-5.86 19.6-1.42 8.61-.72 17.47 0 26 .58 7.43 1.19 15.1.41 22.58a19.7 19.7 0 0 1-2.35 8.28c-2.61 4.26-9.09 5.94-15.35 7.57-5.17 1.34-10.49 2.72-13.85 5.58 1.5-10.23 1.7-24.69-2-36.32-.55-1.69-1.22-3.35-1.87-5a52 52 0 0 1-2.42-6.92c-1.39-5.65-.83-11.67-.33-17 .85-9 1.36-19.65 1.89-30.88.32-6.86.66-13.82 1.07-20.52h-1c-.41 6.69-.75 13.63-1.07 20.47-.53 11.22-1 21.82-1.88 30.84-.51 5.39-1.08 11.51.35 17.32a53.87 53.87 0 0 0 2.46 7.05c.65 1.6 1.31 3.24 1.84 4.89 3.89 12 3.48 27.18 1.79 37.34l-.28 1.72 1.15-1.31c3-3.37 8.82-4.88 14.45-6.35 6.45-1.67 13.13-3.4 16-8a20.46 20.46 0 0 0 2.49-8.7c.8-7.56.18-15.29-.41-22.76-.67-8.5-1.36-17.3 0-25.79 1.1-6.67 3.49-13.15 5.81-19.42a142.55 142.55 0 0 0 4.84-14.73A53.43 53.43 0 0 0 1819.85 0ZM1643 178.73l-.19-.59c-3.65-11.27-6.78-20.94-4-28.53 2-5.38 11-13.69 17.5-19.76 2.63-2.45 4.91-4.56 6.06-5.87 6.5-7.41 8.92-16.13 11.47-25.36 1.71-6.17 3.47-12.55 6.57-18.62s8.09-10.82 12.93-15.44c1.69-1.61 3.43-3.27 5.06-5 6.2-6.41 7.76-26.63 6.26-35.15l1-.18c1.5 8.5.13 29.14-6.52 36-1.64 1.7-3.39 3.37-5.09 5-4.78 4.55-9.73 9.27-12.73 15.17s-4.8 12.31-6.5 18.43c-2.58 9.34-5 18.17-11.68 25.75-1.18 1.35-3.48 3.47-6.13 5.94-6.47 6-15.33 14.22-17.24 19.38-2.65 7.15.29 16.48 3.79 27.27 23.34-14 42.64-43.66 59.68-69.81 4.75-7.29 9.23-14.17 13.59-20.39.73-1 1.48-2.09 2.22-3.13 4.09-5.73 8.31-11.65 10.81-18.27 3.13-8.29 6.64-37.35-4-53.66l.84-.54c10.84 16.6 7.29 46.13 4.1 54.55-2.54 6.75-6.8 12.72-10.92 18.5-.75 1-1.49 2.08-2.22 3.13-4.35 6.2-8.83 13.08-13.57 20.35-17.23 26.45-36.76 56.42-60.55 70.45Z"/><path class="cls-10" d="m1643.76 178.09-1-.22c2.59-11.22 14.13-27.76 27.49-46.91 24.57-35.23 55.16-79.06 47-113.9l1-.22c8.21 35.27-22.51 79.31-47.2 114.69-13.25 19.07-24.74 35.53-27.29 46.56ZM1570.05 82.35c-18.9 0-67.15-11.41-81.67-20.84-3.4-2.21-6.69-4.7-9.86-7.1s-6.73-5.08-10.28-7.35c-4.24-2.72-8.81-5.08-13.23-7.35-4-2.06-8.13-4.19-12-6.59-10-6.12-16.5-13.2-19.47-21l-.33-.86.9.2c8.82 2 18.58 1.8 28 1.65s19.33-.32 28.25 1.67a195.76 195.76 0 0 0 20.05 3.74 199.12 199.12 0 0 0 21.25.87c9.23 0 18.76.08 28 1.89 18.07 3.56 50.13 32.35 60.62 46.58l-.8.59c-10.41-14.12-42.16-42.67-60-46.19-9.11-1.79-18.6-1.83-27.77-1.87a198.79 198.79 0 0 1-21.36-.88 193 193 0 0 1-20.15-3.76c-8.81-2-18.58-1.8-28-1.64-9.18.15-18.66.31-27.33-1.48 3 7.29 9.32 13.91 18.71 19.69 3.87 2.38 8 4.5 12 6.55 4.45 2.29 9 4.65 13.32 7.4 3.58 2.28 7 4.88 10.34 7.39 3.16 2.4 6.43 4.87 9.8 7.06 14.92 9.69 65.73 21.49 83 20.64v1c-.69-.02-1.32-.01-1.99-.01Z"/><path class="cls-10" d="M1589.9 75.77c-4.82-7.91-47.69-29.19-57.11-31.38A136.93 136.93 0 0 0 1516.4 42c-4-.43-8.22-.88-12.29-1.59-11.63-2-70.67-22.21-80.39-28.06l.51-.86c9.34 5.62 68.85 26 80 27.94 4 .7 8.2 1.15 12.22 1.57a138 138 0 0 1 16.55 2.42c8.88 2.06 52.48 23.2 57.74 31.83ZM1478.62 103.27c-14.53 0-64.49-14.07-77.39-20.55-10.55-5.31-15.18-10.64-19.66-15.79-1.32-1.51-2.67-3.07-4.15-4.59l-.41-.42.49-.34c16.92-11.72 39-8.93 50.69-6.22 16.11 3.74 42.84 33 53.36 46.75l1.19.51-1.37.38a11.13 11.13 0 0 1-2.75.27Zm-99.71-40.82c1.2 1.28 2.32 2.57 3.41 3.82 4.42 5.08 9 10.34 19.36 15.56 12.49 6.28 65 21.08 77.76 20.44-3.06-1.42-7.62-3.74-13.16-6.55-23-11.71-65.43-33.27-86.92-33.27Zm.59-1c21.8.11 64.18 21.66 87.24 33.38 5.38 2.73 9.83 5 12.87 6.41-11.13-14.14-36.36-41.35-51.65-44.9-11.18-2.6-32.05-5.28-48.46 5.11Z"/><path class="cls-11" d="M486.26 694.83a2 2 0 0 1-.47-.06c-1.26-.32-1.75-1.69-2.83-4.67l-.28-.79c-1.19-3.25-1.46-7-1.72-10.66a58.29 58.29 0 0 0-.68-6.42c-1.2-6.65-2.89-13.32-4.53-19.76-1.58-6.24-3.22-12.69-4.42-19.14-1.16-6.23-2.29-14.38-.68-22.28 1.66-8.23 6.15-15 12.32-18.48 5.56-3.17 12.92-4 21.29-2.29 5.84 1.17 16.31 4.5 20.81 13.65 3.54 7.22 2.06 15.71.63 21.47-2.65 10.68-7.25 21.54-14.49 34.18-1.3 2.26-2.68 4.88-4.14 7.64-4.76 9-10.16 19.29-16.61 24.91-1.99 1.73-3.11 2.7-4.2 2.7Zm9.79-103.4a24.21 24.21 0 0 0-12.05 2.88c-5.66 3.23-9.8 9.47-11.35 17.13s-.44 15.48.69 21.52c1.19 6.39 2.81 12.81 4.39 19 1.65 6.49 3.35 13.19 4.56 19.9a64 64 0 0 1 .71 6.64c.25 3.51.51 7.13 1.6 10.12l.28.79a12.91 12.91 0 0 0 1.5 3.43 17.07 17.07 0 0 0 2.8-2.23c6.17-5.37 11.48-15.44 16.16-24.33 1.47-2.78 2.85-5.41 4.17-7.71 7.15-12.47 11.69-23.16 14.29-33.66 1.35-5.45 2.77-13.47-.49-20.1-4.12-8.39-13.92-11.48-19.4-12.58a40.77 40.77 0 0 0-7.86-.8Z"/><path class="cls-11" d="m486.28 693.49-1.91-.61c9.48-29.56 17.87-82 18.69-101.66l2 .09c-.82 19.69-9.26 72.47-18.78 102.18Z"/><path class="cls-11" d="M485.28 691.37c-9.88 15.37-12.32 38.49-14.69 60.85-1.65 15.63-3.21 30.38-7.14 42.13a190.89 190.89 0 0 1-7.93 19 190.78 190.78 0 0 0-8 19.11c-5.33 15.87-6.39 32.89-7.42 49.35-.2 3.28-.41 6.55-.65 9.81-2.46 34-8.69 68.13-14.71 101.16-5.27 29-10.67 58.64-13.61 88.49h2c2.93-29.71 8.31-59.28 13.57-88.13 6-33.09 12.26-67.3 14.74-101.37.24-3.27.44-6.55.65-9.83 1-16.33 2.07-33.22 7.31-48.84a191.94 191.94 0 0 1 7.91-18.92 191.21 191.21 0 0 0 8-19.18c4-12 5.57-26.82 7.23-42.56 2.34-22.13 4.76-45 14.38-60Z"/><path class="cls-11" d="m451.7 826.87-1.64-1.15c3.71-5.31 9.39-11 15.42-17.07 3.73-3.76 7.6-7.64 10.91-11.38 5.37-6.08 7.22-15.82 9-25.23a123.12 123.12 0 0 1 3.53-15.04c5-15.1 14.29-27.91 22.76-38.44 7.61-9.48 16.23-18.85 27.59-23.26 10.84-4.21 26.3-2.8 33.58 8.12 4.08 6.12 5 14.76 2.43 23.12-2.4 7.87-7.3 14.62-11.78 20.19a129.11 129.11 0 0 1-25.92 24.22c-13.13 9.39-44.55 21.81-59.86 27.85-3.31 3.73-7.13 7.57-10.83 11.29-5.95 5.91-11.58 11.61-15.19 16.78Zm99.59-131.81a31.63 31.63 0 0 0-11.3 2.07c-10.92 4.24-19.31 13.39-26.75 22.65-8.36 10.4-17.56 23-22.42 37.82a120 120 0 0 0-3.45 14.81c-1.59 8.34-3.22 16.92-7.31 23.29 16-6.35 44.24-17.75 56.35-26.41a124.32 124.32 0 0 0 25.53-23.85c4.36-5.41 9.13-12 11.43-19.52 2.38-7.79 1.56-15.8-2.18-21.42-4.43-6.64-12.19-9.44-19.9-9.44Z"/><path class="cls-11" d="m480.63 796.4-1.58-1.22c1.36-1.77 3-4 5-6.55 16.58-22 51.09-67.62 83.66-89.71l1.12 1.65c-32.29 21.91-66.67 67.4-83.19 89.27-1.97 2.58-3.64 4.79-5.01 6.56ZM449.9 826.48c-.86-4.66-8.09-13.13-13.89-19.94-3.64-4.27-6.77-7.95-8.3-10.5-3.07-5.14-3.94-11.11-4.42-16.8-.07-.81-.13-1.63-.19-2.44l-.9-.4c-16.77-7.32-39.73-17.35-55.88-38-8.72-11.17-12.77-24.58-11.11-36.78 1.21-8.9 5.29-16.34 11.51-21C381 670 398.23 680 408.61 691.86c8.67 9.89 13.82 24.08 15.32 42.2.62 7.48.64 15.09.67 22.46s0 15.06.68 22.55c.46 5.45 1.28 11.15 4.15 15.95 1.44 2.4 4.67 6.2 8.1 10.22 6.27 7.35 13.37 15.69 14.34 20.87ZM380 678.14a19.92 19.92 0 0 0-12.11 4.08c-5.78 4.29-9.58 11.26-10.72 19.62-1.58 11.67 2.32 24.53 10.71 35.28 15.83 20.29 38.5 30.2 55.07 37.44-.33-6-.35-12.12-.37-18 0-7.32-.05-14.9-.66-22.3-1.46-17.67-6.45-31.49-14.84-41-6.92-8-17.08-15.12-27.08-15.12Z"/><path class="cls-11" d="M423 774.84c-9.11-23.23-42.42-86.62-53.23-94.54l1.18-1.61c11.63 8.51 45.77 74.64 53.91 95.42ZM434.34 949.27l-1.75-1c2.79-4.92 13-10.93 22-16.22 4.92-2.9 9.56-5.64 11.88-7.59 4.62-3.9 7.45-9.43 9.83-14.82 3.26-7.4 5.95-15.19 8.56-22.73s5.28-15.22 8.51-22.62c7.85-17.9 18.07-30.55 30.39-37.58 14.72-8.41 35.8-12.64 46.74 3.13 4.75 6.84 6.34 15.82 4.48 25.28-2.55 13-11.36 25.2-24.18 33.53-23.41 15.21-49.76 17.34-69 18.89l-2.48.21c-.39.92-.78 1.83-1.18 2.75-2.47 5.61-5.44 11.38-10.37 15.53-2.45 2.07-6.95 4.72-12.15 7.79-8.39 4.87-18.76 10.99-21.28 15.45ZM549 821.22c-8.25 0-17.08 3.1-24.32 7.23-11.94 6.82-21.88 19.15-29.54 36.65-3.21 7.33-5.88 15-8.46 22.48-2.07 6-4.19 12.11-6.61 18.1l1.49-.12c19-1.54 45.1-3.65 68.08-18.58C562 879 570.52 867.2 573 854.74c1.75-8.92.27-17.35-4.16-23.75-4.94-7.07-12.13-9.77-19.84-9.77Z"/><path class="cls-11" d="m480 905.56-1.28-1.56c5.93-5 15.43-14.18 26.42-24.76 23-22.16 51.7-49.74 61.71-52.85l.59 1.91c-9.56 3-38 30.37-60.91 52.38-11.02 10.64-20.53 19.79-26.53 24.88ZM430.54 962.54c-5.45-6.2-12.82-18.34-18.13-30.45-10.73-7.32-36.27-24.2-47.88-30.83l-2.36-1.34c-9.78-5.56-19.88-11.3-27.08-20.11-9-11-13.29-26.77-12.89-46.92.2-10.11 2.88-16.37 8.18-19.13 4.83-2.51 10.55-1.24 15.52.33 28.47 9 49.84 27.76 57.15 50.11 3.67 11.2 4 23.18 4.25 34.77.07 3.09.15 6.29.29 9.41.64 14 14.2 41.19 24.45 52.84Zm-93.89-148.2a11.39 11.39 0 0 0-5.34 1.2c-4.6 2.39-6.92 8.08-7.11 17.39-.4 19.67 3.79 35 12.44 45.61 7 8.53 16.9 14.18 26.52 19.64l2.36 1.34c10.82 6.18 33.62 21.18 45.45 29.18-3-7.44-5.12-14.65-5.38-20.23-.14-3.14-.22-6.35-.29-9.45-.28-11.45-.57-23.28-4.15-34.2-7.12-21.73-28-40-55.86-48.82a29.32 29.32 0 0 0-8.64-1.66Z"/><path class="cls-11" d="M411 928.46c-13.91-12.7-67.47-81.61-82.71-112.24l1.79-.89c14.79 29.74 68.8 99.36 82.27 111.66ZM528.45 983.64c-3-3.54-7.76-4-12-4.06-24-.15-45.37 10-57.05 27.1-5.84 8.54-9.35 18.67-12.74 28.47-.91 2.62-1.84 5.32-2.8 7.94-4.62 12.58-22.94 31.71-32.73 38.17h3.45a128 128 0 0 0 19.5-19.17c10.13-3.3 34-10.66 44.52-13.13l2.15-.49c8.92-2.06 18.15-4.19 26-9.75 9.79-6.91 17.4-19.19 22.63-36.49 2.62-8.68 2.34-14.76-.93-18.59Zm-1 18c-5.09 16.86-12.45 28.78-21.87 35.43-7.55 5.33-16.58 7.41-25.32 9.43l-2.15.5c-9.71 2.26-30.53 8.62-41.79 12.23 4.22-5.41 7.68-10.86 9.37-15.47 1-2.64 1.91-5.35 2.82-8 3.35-9.68 6.81-19.68 12.5-28 11.24-16.44 31.78-26.23 55-26.23h.39c3.79 0 8 .43 10.49 3.36 2.83 3.32 3.01 8.79.6 16.77Z"/><path class="cls-11" d="m436 1059.53-.9-1.79c13.52-6.78 73.4-51.35 92.78-72.7l1.48 1.34c-19.95 22.01-79.36 66.14-93.36 73.15ZM412 1077.07c-6.88-3.5-14.91-20.77-19.81-33.57-37.55-6.29-70.67-35.88-78.87-70.55-1.27-5.38-2.36-12.32.58-18.3l.37-.76.8.23c34 9.8 62.55 40.27 76.41 81.51 4.68 13.94 14.25 36 21.43 39.66Zm-96.62-120.78c-2.21 5.25-1.22 11.38-.08 16.2 7.95 33.57 39.79 62.27 76.11 68.84-.68-1.84-1.28-3.54-1.79-5.07-13.53-40.26-41.24-70.1-74.24-79.97Z"/><path class="cls-11" d="M391.91 1042.23c-14.92-8.12-35.84-35.09-52.65-56.76-10.62-13.68-19.79-25.5-25-29.6l1.23-1.57c5.45 4.24 14.69 16.15 25.39 30 16.69 21.52 37.47 48.3 52 56.23Z"/><path class="cls-10" d="M1051.43 1047.29q-22.48 0-44.88-1.06c-23-1.09-42.88-3-61.28-8.22-29.82 8.18-60.13 9.22-83 9-10.42-.07-33.18-.55-62-1.16-85-1.8-227.3-4.81-258.24-1.61l-.1-1c31-3.2 173.33-.19 258.36 1.61 28.82.61 51.58 1.09 62 1.16 22.37.17 51.92-.83 81.11-8.58q-6.58-1.95-12.95-4.49c-41.19-16.55-72.89-55.46-80.78-99.13-2.68-14.83-1.8-26.66 2.69-36.17 6.36-13.47 20.88-22.88 37-24 14.54-1 29.92 4.6 42.2 15.32.83.72 1.65 1.47 2.48 2.22 4.39 4 8.93 8.11 14.65 8.85 7.71 1 14.6-4.72 18-8.22 1.7-1.74 3.32-3.63 4.89-5.47 2.93-3.43 6-7 9.69-9.71 12.08-8.87 31-7.54 44 3.1 11 9 18.11 24.18 19.5 41.58 3.54 44.4-28.28 82.89-61.37 101.34a169.63 169.63 0 0 1-36.22 14.75c17.87 4.83 37.16 6.69 59.45 7.74a955.25 955.25 0 0 0 149.93-4.73 41 41 0 0 0 9.08-2.06 17.36 17.36 0 0 1-5.55-5.72c-3.1-5.26-3-12.49.2-18.43 2.8-5.18 7.86-9.49 14.25-12.15 5.61-2.33 13.68-3.17 18 2.13 2.44 3 3 7.5 1.53 11.76-1.14 3.26-3.37 6.36-7 9.75-6.5 6.07-12.77 10.3-19.18 12.88 5.88 3.1 13.55 3.69 20.25 3.77a439 439 0 0 0 66.51-4.38c9.19-1.32 19.78-3.1 29.11-7.7a75.48 75.48 0 0 0 10.37-6.37c-7.68-4.71-13.38-11.19-16.14-18.37-3.39-8.87-2.15-19.31 3.15-26.61 5.58-7.69 15.7-11.71 24.6-9.75 9.37 2 16.67 10.56 17 19.81.19 5.63-2.09 11.72-6.42 17.17-3.87 4.87-8.81 8.73-13.58 12.47-2.22 1.74-4.46 3.5-6.77 5.19 6.41 3.65 13.94 6.18 24.41 8.19a173.67 173.67 0 0 0 59 1.15l.15 1a174.58 174.58 0 0 1-59.28-1.16c-10.6-2-18.23-4.6-24.75-8.31l-.36-.21a77.49 77.49 0 0 1-10.86 6.7c-9.47 4.67-20.15 6.47-29.42 7.8a441 441 0 0 1-66.66 4.39c-6.6-.07-15-.7-21.41-4.32a42.08 42.08 0 0 1-10.06 2.38 956.29 956.29 0 0 1-105.3 5.88Zm131.62-45.94a21.7 21.7 0 0 0-8.16 1.72c-6.18 2.57-11.07 6.72-13.76 11.69-3.06 5.64-3.14 12.49-.22 17.45a16.71 16.71 0 0 0 5.83 5.81c6.55-2.49 13-6.75 19.62-13 3.52-3.28 5.66-6.25 6.75-9.35 1.38-3.94.86-8.07-1.37-10.8-2.07-2.5-5.27-3.52-8.69-3.52Zm-290.4-126.73c-1.08 0-2.16 0-3.23.11-15.74 1-29.92 10.24-36.13 23.39-4.4 9.32-5.25 21-2.61 35.56 7.82 43.35 39.29 82 80.16 98.38a143.48 143.48 0 0 0 14.44 4.91 169.44 169.44 0 0 0 37.59-15.1c32.82-18.29 64.36-56.43 60.86-100.39-1.37-17.13-8.34-32-19.13-40.88-12.64-10.37-31-11.69-42.73-3.08-3.63 2.66-6.62 6.17-9.52 9.56-1.58 1.85-3.21 3.76-4.94 5.52-3.55 3.64-10.73 9.57-18.86 8.52-6-.79-10.69-5-15.19-9.11-.83-.75-1.65-1.49-2.47-2.21-11.17-9.75-24.95-15.18-38.24-15.18Zm408.47 95.14a24.21 24.21 0 0 0-19.2 9.83c-5.11 7-6.3 17.1-3 25.66 2.71 7.09 8.4 13.48 16.08 18.09 2.42-1.76 4.77-3.61 7.09-5.42 4.73-3.71 9.62-7.54 13.42-12.31 4.18-5.26 6.38-11.13 6.2-16.52-.3-8.8-7.26-16.91-16.19-18.87a20.75 20.75 0 0 0-4.4-.46Z"/><path class="cls-11" d="M658.23 910.4c3.86 0 3.87-6 0-6s-3.87 6 0 6ZM683.24 858.11c3.86 0 3.87-6 0-6s-3.87 6 0 6ZM644.26 878.57c3.87 0 3.87-6 0-6s-3.86 6 0 6ZM700.13 921.45c3.86 0 3.87-6 0-6s-3.86 6 0 6ZM712.8 904.88c3.86 0 3.87-6 0-6s-3.87 6 0 6ZM754.05 849c3.86 0 3.87-6 0-6s-3.87 6 0 6ZM623.15 904.56c3.86 0 3.87-6 0-6s-3.87 6 0 6ZM659.21 936.71c3.86 0 3.86-6 0-6s-3.87 6 0 6ZM710.85 911.38c3.86 0 3.87-6 0-6s-3.87 6 0 6ZM687.46 823.68c3.87 0 3.87-6 0-6s-3.86 6 0 6ZM730.34 859.73c3.86 0 3.87-6 0-6s-3.87 6 0 6ZM708.9 874.35c3.86 0 3.87-6 0-6s-3.86 6 0 6ZM663.1 839.27c3.86 0 3.87-6 0-6s-3.86 6 0 6ZM629 854.86c3.86 0 3.87-6 0-6s-3.87 6 0 6ZM656.28 877.27c3.86 0 3.87-6 0-6s-3.86 6 0 6ZM692.34 831.47c3.86 0 3.86-6 0-6s-3.87 6 0 6Z"/><path class="cls-11" d="M729.37 860.71c3.86 0 3.86-6 0-6s-3.87 6 0 6ZM681.62 876.3c3.86 0 3.87-6 0-6s-3.87 6 0 6ZM694.29 930.87c3.86 0 3.86-6 0-6s-3.87 6 0 6ZM721.57 911.38c3.86 0 3.87-6 0-6s-3.87 6 0 6ZM677.72 868.5c3.86 0 3.87-6 0-6s-3.87 6 0 6ZM635.82 864.6c3.86 0 3.87-6 0-6s-3.87 6 0 6ZM683.57 902.61c3.86 0 3.86-6 0-6s-3.87 6 0 6ZM664.08 893.84c3.86 0 3.87-6 0-6s-3.87 6 0 6ZM702.08 793.47c3.86 0 3.87-6 0-6s-3.87 6 0 6ZM737.16 851.94c3.86 0 3.87-6 0-6s-3.87 6 0 6ZM720.6 827.58c3.86 0 3.86-6 0-6s-3.87 6 0 6ZM706 864.6c3.86 0 3.87-6 0-6s-3.87 6 0 6ZM700.13 858.76c3.86 0 3.87-6 0-6s-3.86 6 0 6ZM739.11 894.81c3.86 0 3.87-6 0-6s-3.87 6 0 6ZM734.24 872.4c3.86 0 3.86-6 0-6s-3.87 6 0 6ZM712.8 851.94c3.86 0 3.87-6 0-6s-3.87 6 0 6ZM689.41 806.14c3.86 0 3.87-6 0-6s-3.86 6 0 6ZM633.87 839.27c3.86 0 3.87-6 0-6s-3.87 6 0 6ZM661.15 822.7c3.87 0 3.87-6 0-6s-3.86 6 0 6Z"/><path class="cls-10" d="M1217.45 302.81c3.86 0 3.87-6 0-6s-3.86 6 0 6ZM1250.45 233.81c3.87 0 3.87-6 0-6s-3.86 6 0 6ZM1199 260.81c3.86 0 3.87-6 0-6s-3.86 6 0 6ZM1272.74 317.38c3.86 0 3.87-6 0-6s-3.87 6 0 6ZM1289.46 295.52c3.86 0 3.86-6 0-6s-3.87 6 0 6ZM1343.89 221.81c3.86 0 3.87-6 0-6s-3.87 6 0 6ZM1171.16 295.1c3.86 0 3.87-6 0-6s-3.86 6 0 6ZM1218.74 337.53c3.86 0 3.87-6 0-6s-3.87 6 0 6ZM1286.89 304.1c3.86 0 3.86-6 0-6s-3.87 6 0 6ZM1256 188.38c3.86 0 3.86-6 0-6s-3.87 6 0 6ZM1312.6 236c3.86 0 3.87-6 0-6s-3.87 6 0 6ZM1284.31 255.24c3.86 0 3.87-6 0-6s-3.86 6 0 6ZM1223.88 209c3.86 0 3.87-6 0-6s-3.87 6 0 6ZM1178.88 229.52c3.86 0 3.87-6 0-6s-3.87 6 0 6ZM1214.88 259.09c3.86 0 3.87-6 0-6s-3.87 6 0 6ZM1262.46 198.66c3.86 0 3.86-6 0-6s-3.87 6 0 6Z"/><path class="cls-10" d="M1311.32 237.24c3.86 0 3.86-6 0-6s-3.87 6 0 6ZM1248.31 257.81c3.86 0 3.87-6 0-6s-3.87 6 0 6ZM1265 329.81c3.86 0 3.86-6 0-6s-3.87 6 0 6ZM1301 304.1c3.86 0 3.87-6 0-6s-3.87 6 0 6ZM1243.17 247.52c3.86 0 3.87-6 0-6s-3.87 6 0 6ZM1187.88 242.38c3.86 0 3.87-6 0-6s-3.87 6 0 6ZM1250.88 292.52c3.86 0 3.87-6 0-6s-3.86 6 0 6ZM1225.17 281c3.86 0 3.86-6 0-6s-3.87 6 0 6ZM1275.31 148.52c3.86 0 3.87-6 0-6s-3.86 6 0 6ZM1321.6 225.66c3.86 0 3.87-6 0-6s-3.87 6 0 6ZM1299.74 193.52c3.86 0 3.87-6 0-6s-3.86 6 0 6ZM1280.46 242.38c3.86 0 3.86-6 0-6s-3.87 6 0 6ZM1272.74 234.66c3.86 0 3.87-6 0-6s-3.87 6 0 6ZM1324.17 282.24c3.86 0 3.87-6 0-6s-3.86 6 0 6ZM1317.74 252.66c3.86 0 3.87-6 0-6s-3.86 6 0 6ZM1289.46 225.66c3.86 0 3.86-6 0-6s-3.87 6 0 6ZM1258.6 165.23c3.86 0 3.86-6 0-6s-3.87 6 0 6ZM1185.31 209c3.86 0 3.86-6 0-6s-3.87 6 0 6ZM1221.31 187.09c3.86 0 3.87-6 0-6s-3.87 6 0 6Z"/><path style="fill:none" d="M.87.81h1920v1080H.87z"/></g></g></svg>